<svg width="24" height="24" viewBox="0 0 24 24" fill="none" xmlns="http://www.w3.org/2000/svg">
<mask id="path-2-inside-1_20_94" >
<path fill-rule="evenodd" clip-rule="evenodd" d="M6 9C3.79086 9 2 10.7909 2 13V18C2 20.2091 3.79086 22 6 22H18C20.2091 22 22 20.2091 22 18V13C22 10.7909 20.2091 9 18 9H6ZM9.78469 12.1191C9.89544 12.0473 10.0201 12.0096 10.1468 12.0096C10.2754 12.0096 10.4017 12.0484 10.5137 12.1221L10.5204 12.1267L14.2191 14.7757C14.3314 14.8416 14.4262 14.9422 14.4932 15.0666C14.5623 15.1948 14.5989 15.3433 14.5989 15.4948C14.5989 15.6463 14.5623 15.7947 14.4932 15.923C14.4263 16.0473 14.3316 16.1477 14.2194 16.2137L10.521 18.8824L10.5137 18.8875C10.4017 18.9613 10.2754 19 10.1468 19C10.0201 19 9.89544 18.9623 9.78469 18.8905C9.67191 18.8235 9.57672 18.7221 9.50922 18.597C9.44073 18.4703 9.40336 18.3239 9.40114 18.1741L9.40111 18.1698V12.8398L9.40114 12.8355C9.40336 12.6856 9.44073 12.5393 9.50922 12.4125C9.57672 12.2875 9.67191 12.1861 9.78469 12.1191Z"/>
</mask>
<path fill-rule="evenodd" clip-rule="evenodd" d="M6 9C3.79086 9 2 10.7909 2 13V18C2 20.2091 3.79086 22 6 22H18C20.2091 22 22 20.2091 22 18V13C22 10.7909 20.2091 9 18 9H6ZM9.78469 12.1191C9.89544 12.0473 10.0201 12.0096 10.1468 12.0096C10.2754 12.0096 10.4017 12.0484 10.5137 12.1221L10.5204 12.1267L14.2191 14.7757C14.3314 14.8416 14.4262 14.9422 14.4932 15.0666C14.5623 15.1948 14.5989 15.3433 14.5989 15.4948C14.5989 15.6463 14.5623 15.7947 14.4932 15.923C14.4263 16.0473 14.3316 16.1477 14.2194 16.2137L10.521 18.8824L10.5137 18.8875C10.4017 18.9613 10.2754 19 10.1468 19C10.0201 19 9.89544 18.9623 9.78469 18.8905C9.67191 18.8235 9.57672 18.7221 9.50922 18.597C9.44073 18.4703 9.40336 18.3239 9.40114 18.1741L9.40111 18.1698V12.8398L9.40114 12.8355C9.40336 12.6856 9.44073 12.5393 9.50922 12.4125C9.57672 12.2875 9.67191 12.1861 9.78469 12.1191Z" fill="currentColor"/>
<rect x="7" y="5" width="10" height="1.5" rx="0.75" fill="currentColor"/>
<rect x="5" y="7" width="14" height="1.5" rx="0.75" fill="currentColor"/>
</svg>
